<?xml version="1.0" encoding="UTF-8" standalone="no"?>
<svg
   xmlns:dc="http://purl.org/dc/elements/1.1/"
   xmlns:cc="http://creativecommons.org/ns#"
   xmlns:rdf="http://www.w3.org/1999/02/22-rdf-syntax-ns#"
   xmlns:svg="http://www.w3.org/2000/svg"
   xmlns="http://www.w3.org/2000/svg"
   xmlns:sodipodi="http://sodipodi.sourceforge.net/DTD/sodipodi-0.dtd"
   xmlns:inkscape="http://www.inkscape.org/namespaces/inkscape"
   viewBox="0 0 1200.0001 899.99997"
   height="900"
   width="1200"
   xml:space="preserve"
   id="svg2"
   version="1.1"
   sodipodi:docname="background.svg"
   inkscape:version="0.92.2 5c3e80d, 2017-08-06"><sodipodi:namedview
     pagecolor="#ffffff"
     bordercolor="#666666"
     borderopacity="1"
     objecttolerance="10"
     gridtolerance="10"
     guidetolerance="10"
     inkscape:pageopacity="0"
     inkscape:pageshadow="2"
     inkscape:window-width="640"
     inkscape:window-height="480"
     id="namedview49"
     showgrid="false"
     inkscape:snap-bbox="true"
     inkscape:bbox-paths="true"
     inkscape:bbox-nodes="true"
     inkscape:snap-bbox-edge-midpoints="true"
     inkscape:snap-bbox-midpoints="true"
     inkscape:snap-intersection-paths="true"
     inkscape:object-paths="true"
     inkscape:snap-smooth-nodes="true"
     inkscape:snap-midpoints="true"
     inkscape:snap-object-midpoints="true"
     inkscape:snap-center="true"
     inkscape:zoom="0.96061356"
     inkscape:cx="868.94017"
     inkscape:cy="329.4195"
     inkscape:current-layer="svg2"
     units="px"
     inkscape:lockguides="true"><sodipodi:guide
       position="0,0"
       orientation="0,1200"
       id="guide820"
       inkscape:locked="true" /><sodipodi:guide
       position="1200,0"
       orientation="-900,0"
       id="guide822"
       inkscape:locked="true" /><sodipodi:guide
       position="1200,900.00002"
       orientation="0,-1200"
       id="guide824"
       inkscape:locked="true" /><sodipodi:guide
       position="0,900.00002"
       orientation="900,0"
       id="guide826"
       inkscape:locked="true" /></sodipodi:namedview><metadata
     id="metadata8"><rdf:RDF><cc:Work
         rdf:about=""><dc:format>image/svg+xml</dc:format><dc:type
           rdf:resource="http://purl.org/dc/dcmitype/StillImage" /><dc:title /></cc:Work></rdf:RDF></metadata><defs
     id="defs6" /><g
     id="g838"
     transform="matrix(2.1973756,0,0,2.1973756,701.53712,-1036.9968)"
     style="stroke-width:0.45508829"><path
       inkscape:connector-curvature="0"
       d="m 82.687689,762.98481 12.112873,7.00985 12.114818,6.99044 v 28.00058 l -12.114818,7.00985 -12.112873,6.99044 -12.114815,-6.99044 -12.110931,-7.00985 V 790.98539 776.9851 l 12.110931,-6.99044 12.114815,-7.00985"
       style="fill:#127bca;fill-opacity:1;fill-rule:evenodd;stroke:none;stroke-width:0.06067844"
       id="path1856" /><path
       inkscape:connector-curvature="0"
       d="m 165.19814,804.98568 12.12841,6.99044 12.12452,7.00985 v 28.02 l -12.12452,7.00985 -12.12841,7.00986 -12.12647,-7.00986 -12.12646,-7.00985 v -14.00029 -14.01971 l 12.12646,-7.00985 12.12647,-6.99044"
       style="fill:#127bca;fill-opacity:1;fill-rule:evenodd;stroke:none;stroke-width:0.06067844"
       id="path1858" /><g
       id="g1860"
       transform="matrix(0.19615165,0,0,-0.19615165,-1063.4099,3901.3995)"
       style="stroke-width:0.31248751"><path
         inkscape:connector-curvature="0"
         d="m 6263.52,16300 74.22,-42.9 74.23,-42.7 v -85.7 -85.7 l -74.23,-42.8 -74.22,-42.8 -74.24,42.8 -74.23,42.8 v 85.7 85.7 l 74.23,42.7 74.24,42.9"
         style="fill:#127bca;fill-opacity:1;fill-rule:evenodd;stroke:none;stroke-width:0.31248751"
         id="path1862" /></g><path
       inkscape:connector-curvature="0"
       d="m 184.6432,765.81982 9.72254,5.59235 9.72447,5.59235 v 22.36939 l -9.72447,5.59235 -9.72254,5.59235 -9.72059,-5.59235 -9.72253,-5.59235 v -11.1847 -11.18469 l 9.72253,-5.59235 9.72059,-5.59235"
       style="fill:#127bca;fill-opacity:1;fill-rule:evenodd;stroke:none;stroke-width:0.06067844"
       id="path1864" /><path
       inkscape:connector-curvature="0"
       d="m 121.55452,813.45187 7.29918,4.19427 7.29723,4.17484 v 16.77705 l -7.29723,4.17484 -7.29918,4.19426 -7.29919,-4.19426 -7.29918,-4.17484 v -8.38853 -8.38852 l 7.29918,-4.17484 7.29919,-4.19427"
       style="fill:#127bca;fill-opacity:1;fill-rule:evenodd;stroke:none;stroke-width:0.06067844"
       id="path1866" /><g
       id="g1868"
       transform="matrix(0.19477298,0,0,-0.19477298,-1063.4099,3901.3995)"
       style="stroke-width:0.31248751"><path
         inkscape:connector-curvature="0"
         d="m 6008.88,16300 49.77,-28.7 49.76,-28.7 v -57.4 -57.5 l -49.76,-28.7 -49.77,-28.7 -49.76,28.7 -49.75,28.7 v 57.5 57.4 l 49.75,28.7 49.76,28.7"
         style="fill:#127bca;fill-opacity:1;fill-rule:evenodd;stroke:none;stroke-width:0.31248751"
         id="path1870" /></g></g></svg>